<svg width="816" height="822" viewBox="0 0 816 822" fill="none" xmlns="http://www.w3.org/2000/svg">
<path d="M324.011 27.4903C378.579 9.62963 437.421 9.62963 491.989 27.4903L564.253 51.143C618.559 68.9177 665.825 103.463 699.25 149.807L745.017 213.262C778.183 259.247 796.031 314.506 796.031 371.203V450.797C796.031 507.494 778.183 562.753 745.017 608.738L699.25 672.193C665.825 718.537 618.559 753.082 564.253 770.857L491.989 794.51C437.421 812.37 378.579 812.37 324.011 794.51L251.747 770.857C197.441 753.082 150.175 718.537 116.75 672.193L70.9834 608.738C37.8173 562.753 19.9689 507.494 19.9689 450.797V371.203C19.9689 314.506 37.8173 259.247 70.9834 213.262L116.75 149.807C150.175 103.463 197.441 68.9177 251.747 51.1431L324.011 27.4903Z" fill="white"/>
<path d="M761 411C761 605.957 602.957 764 408 764C213.043 764 55 605.957 55 411C55 216.043 213.043 58 408 58C602.957 58 761 216.043 761 411Z" fill="white"/>
<path fill-rule="evenodd" clip-rule="evenodd" d="M408 58C602.957 58 761 216.043 761 411C761 605.957 602.957 764 408 764C213.043 764 55 605.957 55 411C55 216.043 213.043 58 408 58ZM518.976 429.298C462.934 356.429 353.066 356.429 297.024 429.298L275.603 457.151C204.795 549.22 270.431 682.5 386.578 682.5H429.422C545.57 682.5 611.205 549.22 540.397 457.151L518.976 429.298ZM309.197 318.395C306.815 277.244 265.686 249.832 226.788 263.47L220.384 265.715C172.111 282.639 163.945 347.444 206.511 375.814L213.308 380.345C255.874 408.715 312.546 376.239 309.59 325.171L309.197 318.395ZM586.052 263.47C547.154 249.832 506.025 277.244 503.643 318.395L503.251 325.171C500.295 376.239 556.966 408.715 599.532 380.345L606.33 375.814C648.896 347.444 640.73 282.639 592.457 265.715L586.052 263.47ZM461.044 194.187C434.241 158.553 380.759 158.553 353.956 194.187L346.593 203.976C313.379 248.133 344.883 311.25 400.137 311.25H414.863C470.117 311.25 501.621 248.133 468.407 203.976L461.044 194.187Z" fill="url(#paint0_linear_18_8)"/>
<defs>
<linearGradient id="paint0_linear_18_8" x1="55" y1="411" x2="761" y2="411" gradientUnits="userSpaceOnUse">
<stop stop-color="#C6396C"/>
<stop offset="0.2" stop-color="#C6396C"/>
<stop offset="0.2" stop-color="#F06C41"/>
<stop offset="0.4" stop-color="#F06C41"/>
<stop offset="0.4" stop-color="#0C9973"/>
<stop offset="0.6" stop-color="#0C9973"/>
<stop offset="0.6" stop-color="#4362EF"/>
<stop offset="0.8" stop-color="#4362EF"/>
<stop offset="0.8" stop-color="#9842E2"/>
<stop offset="1" stop-color="#9842E2"/>
</linearGradient>
</defs>
</svg>
